<svg version="1.1" xmlns="http://www.w3.org/2000/svg" width="645" height="1024">
<path d="M0 0 C212.85 0 425.7 0 645 0 C645 337.92 645 675.84 645 1024 C432.15 1024 219.3 1024 0 1024 C0 686.08 0 348.16 0 0 Z " fill="#FEFEFE" transform="translate(0,0)"></path>
<path d="" fill="#9ECDED" transform="translate(335,109)"></path>
<path d="" fill="#8BADC3" transform="translate(249,767)"></path>
<path d="" fill="#A1C8E0" transform="translate(576,537)"></path>
<path d="M0 0 C2.9 2.55 4.5 5.45 6.34 8.83 C6.65 9.4 6.97 9.98 7.29 10.58 C7.97 11.82 8.65 13.06 9.32 14.3 C11.11 17.61 12.93 20.92 14.73 24.22 C15.1 24.88 15.46 25.55 15.84 26.24 C19.05 32.1 22.32 37.93 25.62 43.75 C30.25 51.9 34.86 60.07 39.44 68.25 C40.29 69.77 40.29 69.77 41.16 71.32 C43.82 76.08 46.47 80.85 49.07 85.64 C51.79 90.65 54.62 95.58 57.5 100.5 C62.21 108.61 66.79 116.76 71.12 125.08 C76.22 134.85 81.5 144.5 86.96 154.08 C91 161.19 94.93 168.36 98.81 175.56 C102.8 182.97 106.86 190.33 111.06 197.62 C117.98 209.68 124.58 221.9 131.19 234.13 C134.75 240.7 138.34 247.26 141.99 253.79 C144.58 258.44 147.15 263.09 149.72 267.75 C155.96 279.1 162.22 290.43 168.62 301.69 C173.88 310.94 178.95 320.28 183.98 329.66 C188.45 337.99 192.99 346.28 197.62 354.53 C199.23 357.41 200.84 360.29 202.45 363.17 C209.92 376.55 209.92 376.55 217.5 389.88 C219.86 393.99 222.2 398.11 224.5 402.25 C224.98 403.12 225.47 403.99 225.97 404.89 C227 407 227 407 227 409 C224.07 407.65 221.72 406.09 219.24 404.02 C218.54 403.44 217.84 402.85 217.11 402.25 C216.37 401.63 215.64 401.01 214.88 400.38 C213.34 399.1 211.8 397.82 210.27 396.54 C209.53 395.93 208.79 395.31 208.03 394.68 C204.83 392.03 201.57 389.44 198.32 386.86 C195.7 384.76 193.1 382.63 190.5 380.5 C187.12 377.73 183.73 374.97 180.31 372.25 C173.88 367.12 167.5 361.92 161.12 356.72 C159.01 355.01 156.91 353.3 154.8 351.59 C149.03 346.9 143.25 342.21 137.5 337.5 C123.34 325.89 123.34 325.89 109 314.5 C101.91 308.96 94.91 303.31 87.95 297.59 C86.03 296.03 84.1 294.48 82.17 292.94 C80.99 291.98 79.81 291.02 78.62 290.06 C78.08 289.64 77.54 289.21 76.98 288.78 C71.28 284.08 70.44 277.14 68.61 270.29 C68.38 269.45 68.16 268.62 67.93 267.75 C67.2 265.05 66.47 262.34 65.75 259.62 C65.5 258.7 65.25 257.77 65 256.81 C61.71 244.54 58.5 232.24 55.46 219.9 C53.35 211.31 51.11 202.76 48.89 194.2 C47.24 187.83 45.61 181.44 44.02 175.05 C42.21 167.78 40.3 160.55 38.37 153.32 C34.68 139.56 31.16 125.77 27.74 111.94 C25.3 102.08 22.75 92.25 20.03 82.46 C18.15 75.67 16.5 68.84 14.9 61.97 C13.34 55.35 11.67 48.77 9.94 42.19 C9.68 41.22 9.43 40.25 9.17 39.25 C8.67 37.37 8.18 35.49 7.68 33.61 C4.76 22.47 2.15 11.32 0 0 Z " fill="#2C83BF" transform="translate(335,109)"></path>
<path d="M0 0 C1.17 3.5 0.77 4.55 -0.26 8.02 C-0.7 9.56 -0.7 9.56 -1.16 11.12 C-1.48 12.2 -1.8 13.27 -2.12 14.38 C-4.69 23.05 -6.93 31.74 -8.99 40.54 C-11.56 51.44 -14.35 62.28 -17.12 73.12 C-17.69 75.35 -18.26 77.58 -18.83 79.8 C-19.99 84.33 -21.15 88.85 -22.31 93.38 C-23.91 99.66 -25.52 105.93 -27.12 112.21 C-27.85 115.07 -28.58 117.93 -29.31 120.79 C-29.76 122.56 -30.21 124.33 -30.66 126.1 C-32.93 134.98 -35.22 143.86 -37.56 152.72 C-39.26 159.13 -40.9 165.55 -42.5 171.98 C-44.54 180.19 -46.65 188.37 -48.75 196.56 C-49.19 198.29 -49.63 200.01 -50.08 201.73 C-52.08 209.54 -54.09 217.36 -56.11 225.16 C-56.44 226.42 -56.76 227.68 -57.1 228.97 C-57.74 231.44 -58.38 233.9 -59.02 236.37 C-60.65 242.64 -62.23 248.92 -63.73 255.23 C-64.51 258.55 -65.31 261.87 -66.11 265.19 C-66.49 266.8 -66.87 268.4 -67.23 270.01 C-67.75 272.26 -68.28 274.49 -68.82 276.73 C-69.12 278.01 -69.42 279.3 -69.73 280.62 C-71.18 284.49 -72.9 286.32 -76 289 C-76.91 289.79 -77.82 290.58 -78.76 291.39 C-79.73 292.19 -80.69 292.99 -81.69 293.81 C-82.21 294.25 -82.74 294.68 -83.28 295.13 C-87.22 298.38 -91.19 301.57 -95.18 304.74 C-104.21 311.97 -113.16 319.31 -122.11 326.64 C-127.01 330.64 -131.91 334.62 -136.82 338.6 C-139.58 340.84 -142.33 343.09 -145.09 345.34 C-151.41 350.49 -157.75 355.61 -164.19 360.62 C-168.71 364.15 -173.14 367.77 -177.5 371.5 C-182.42 375.71 -187.44 379.75 -192.55 383.73 C-197.14 387.31 -201.67 390.95 -206.19 394.62 C-206.86 395.17 -207.53 395.72 -208.22 396.28 C-211.28 398.77 -214.34 401.28 -217.39 403.79 C-218.37 404.6 -219.36 405.41 -220.38 406.25 C-221.66 407.31 -221.66 407.31 -222.96 408.39 C-225 410 -225 410 -227 411 C-225.71 407.59 -224.22 404.46 -222.39 401.3 C-221.89 400.43 -221.38 399.56 -220.86 398.65 C-220.33 397.74 -219.8 396.82 -219.25 395.88 C-218.15 393.97 -217.06 392.06 -215.96 390.16 C-215.18 388.8 -215.18 388.8 -214.39 387.42 C-211.04 381.58 -207.86 375.65 -204.74 369.68 C-200.47 361.53 -196.16 353.41 -191.6 345.41 C-188.16 339.34 -184.86 333.2 -181.56 327.06 C-177.3 319.15 -172.92 311.32 -168.32 303.6 C-165.62 299.08 -163.05 294.51 -160.56 289.87 C-158.97 286.94 -157.33 284.05 -155.69 281.15 C-152.67 275.85 -149.73 270.55 -147.06 265.06 C-144.22 259.26 -140.97 253.75 -137.67 248.2 C-133.52 241.22 -129.62 234.12 -125.87 226.91 C-120.75 217.1 -115.45 207.41 -109.97 197.78 C-106.11 191 -102.34 184.17 -98.62 177.31 C-95.02 170.66 -91.35 164.08 -87.5 157.57 C-85.48 154.1 -83.57 150.58 -81.66 147.05 C-79.64 143.35 -77.57 139.67 -75.5 136 C-72.51 130.7 -69.56 125.39 -66.66 120.04 C-64.06 115.28 -61.42 110.54 -58.78 105.81 C-53.8 96.87 -48.93 87.88 -44.11 78.86 C-38.75 68.85 -33.3 58.9 -27.62 49.07 C-22.73 40.57 -17.98 32 -13.25 23.41 C-10.03 17.58 -6.74 11.81 -3.26 6.13 C-2.07 4.12 -1.01 2.1 0 0 Z " fill="#195075" transform="translate(321,108)"></path>
<path d="" fill="#A8D0EB" transform="translate(328,87)"></path>
<path d="M0 0 C2.62 3.44 4.82 7.04 7.02 10.76 C10.71 16.91 14.47 23 18.39 29.01 C23.83 37.35 29.15 45.76 34.45 54.18 C36.91 58.08 39.37 61.99 41.83 65.89 C42.32 66.66 42.81 67.44 43.32 68.24 C47.18 74.36 51.07 80.47 54.96 86.57 C61.83 97.37 68.67 108.19 75.5 119.02 C77.05 121.47 78.59 123.93 80.14 126.39 C80.64 127.17 81.13 127.96 81.64 128.76 C83.97 132.46 86.32 136.15 88.71 139.81 C89.13 140.46 89.56 141.11 89.99 141.78 C90.78 142.98 91.57 144.19 92.37 145.39 C94.96 149.35 94.96 149.35 94.96 151.57 C88.27 150.09 82.89 146.93 76.96 143.57 C67.19 138.12 57.42 132.72 47.39 127.77 C33.19 120.76 19.11 113.48 5.37 105.61 C0.19 102.66 -5.1 99.98 -10.47 97.38 C-13.42 95.92 -16.31 94.35 -19.19 92.77 C-25.19 89.47 -31.27 86.33 -37.36 83.2 C-45.3 79.09 -53.11 74.88 -60.84 70.38 C-64.93 68.07 -69.12 65.99 -73.32 63.92 C-93.13 54.13 -113.22 44.17 -132.04 32.57 C-129.13 30.63 -127.17 29.92 -123.84 29.02 C-122.26 28.6 -122.26 28.6 -120.65 28.16 C-119.52 27.87 -118.39 27.57 -117.23 27.26 C-116.07 26.95 -114.92 26.64 -113.72 26.33 C-105.3 24.1 -96.85 22.08 -88.34 20.26 C-84.34 19.39 -80.47 18.43 -76.61 17.08 C-71.53 15.32 -66.36 14.27 -61.11 13.2 C-52.38 11.36 -43.82 9.22 -35.25 6.77 C-29.81 5.21 -24.32 3.83 -18.82 2.5 C-16.3 1.88 -13.79 1.22 -11.3 0.52 C-10.14 0.21 -8.98 -0.1 -7.79 -0.43 C-6.27 -0.86 -6.27 -0.86 -4.71 -1.3 C-2.04 -1.43 -2.04 -1.43 0 0 Z " fill="#0F3057" transform="translate(225.04296875,498.42578125)"></path>
<path d="M0 0 C7.74 0.46 14.81 2.12 22.25 4.25 C30.61 6.57 38.96 8.76 47.44 10.62 C58.15 12.99 68.73 15.76 79.31 18.62 C89.53 21.38 99.78 23.89 110.11 26.18 C117.5 27.84 124.76 29.79 132 32 C130.58 34.83 128.79 35.21 125.94 36.56 C120.93 39 116.08 41.61 111.25 44.38 C106.05 47.34 100.81 50.16 95.44 52.81 C80.87 60 66.49 67.54 52.33 75.5 C47.82 78.03 43.27 80.41 38.62 82.69 C31.17 86.34 23.87 90.25 16.56 94.19 C7.39 99.13 -1.81 104.02 -11.06 108.81 C-12.09 109.35 -13.12 109.88 -14.18 110.43 C-16.18 111.47 -18.18 112.5 -20.18 113.54 C-30.59 118.93 -40.96 124.39 -51.19 130.12 C-57.33 133.57 -63.53 136.83 -69.86 139.94 C-78.33 144.12 -86.66 148.57 -95 153 C-95 148.64 -92.63 145.77 -90.38 142.19 C-89.64 141 -89.64 141 -88.89 139.79 C-82.68 129.81 -76.33 119.91 -70 110 C-67.69 106.38 -65.37 102.75 -63.06 99.12 C-62.49 98.23 -61.92 97.33 -61.33 96.4 C-56.95 89.52 -52.63 82.61 -48.31 75.69 C-43.61 68.14 -38.85 60.62 -34 53.17 C-30.58 47.91 -27.22 42.62 -23.88 37.31 C-19.33 30.09 -14.74 22.9 -10.12 15.73 C-8.05 12.53 -6 9.33 -3.94 6.12 C-3.18 4.94 -2.41 3.76 -1.65 2.57 C-1.11 1.72 -0.56 0.87 0 0 Z " fill="#174B75" transform="translate(432,498)"></path>
<path d="" fill="#5A819E" transform="translate(248,768)"></path>
<path d="" fill="#5EA2CB" transform="translate(409.125,772.9375)"></path>
<path d="M0 0 C0 4.36 -2.61 6.76 -5.19 10.06 C-6.3 11.51 -7.41 12.97 -8.52 14.42 C-9.1 15.18 -9.67 15.93 -10.27 16.71 C-13.03 20.37 -15.7 24.09 -18.38 27.81 C-24.59 36.46 -30.9 45.03 -37.23 53.6 C-39.01 56.01 -40.79 58.44 -42.57 60.86 C-48.02 68.26 -53.48 75.66 -59 83 C-68.63 95.8 -78.1 108.72 -87.46 121.72 C-91.12 126.8 -94.85 131.82 -98.63 136.82 C-101.61 140.82 -104.52 144.88 -107.44 148.94 C-111.27 154.28 -115.15 159.56 -119.19 164.75 C-122.91 169.54 -126.47 174.41 -129.98 179.36 C-133.51 184.34 -137.12 189.27 -140.75 194.19 C-141.64 195.39 -141.64 195.39 -142.54 196.62 C-144.36 199.08 -146.18 201.54 -148 204 C-150.36 207.19 -152.71 210.37 -155.06 213.56 C-155.64 214.35 -156.22 215.13 -156.82 215.94 C-160.77 221.31 -164.68 226.71 -168.56 232.12 C-173.36 238.81 -178.31 245.37 -183.34 251.89 C-187.04 256.71 -190.62 261.59 -194.12 266.55 C-197.68 271.58 -201.33 276.54 -205 281.5 C-210.75 289.28 -216.41 297.11 -222 305 C-222.33 304.34 -222.66 303.68 -223 303 C-222.07 300.61 -221.08 298.34 -219.98 296.03 C-219.66 295.32 -219.33 294.61 -218.99 293.89 C-218.29 292.36 -217.58 290.84 -216.87 289.32 C-215 285.33 -213.15 281.33 -211.3 277.33 C-210.93 276.53 -210.56 275.73 -210.18 274.91 C-207 268.03 -203.91 261.13 -200.88 254.19 C-200.43 253.18 -199.99 252.16 -199.53 251.12 C-197.24 245.88 -194.99 240.64 -192.75 235.38 C-190.85 230.92 -188.86 226.52 -186.79 222.14 C-182.93 213.92 -179.24 205.62 -175.56 197.31 C-174.87 195.75 -174.18 194.19 -173.49 192.63 C-172.05 189.39 -170.61 186.15 -169.18 182.91 C-165.64 174.94 -162.1 166.97 -158.56 159 C-158.05 157.85 -158.05 157.85 -157.53 156.68 C-153.14 146.81 -148.74 136.93 -144.29 127.08 C-142.42 122.94 -140.56 118.79 -138.71 114.64 C-137.83 112.66 -136.95 110.68 -136.06 108.71 C-135.49 107.42 -134.91 106.14 -134.34 104.85 C-133.53 103.04 -132.73 101.23 -131.92 99.42 C-131.45 98.38 -130.99 97.33 -130.5 96.25 C-130.01 95.18 -129.51 94.11 -129 93 C-128.73 92.35 -128.47 91.69 -128.19 91.02 C-125.73 85.41 -122.64 82.67 -117.56 79.38 C-116.82 78.87 -116.08 78.37 -115.31 77.85 C-112.88 76.22 -110.44 74.61 -108 73 C-106.32 71.87 -104.64 70.74 -102.97 69.61 C-97.68 66.05 -92.37 62.52 -87.06 59 C-85.27 57.81 -83.48 56.61 -81.68 55.42 C-78.15 53.07 -74.62 50.73 -71.09 48.38 C-58.15 39.78 -45.23 31.16 -32.38 22.44 C-31.71 21.99 -31.05 21.54 -30.36 21.07 C-22.61 15.82 -14.85 10.55 -7.12 5.25 C-6.49 4.81 -5.85 4.38 -5.2 3.93 C-2.48 2.12 -2.48 2.12 0 0 Z " fill="#2C83BE" transform="translate(563,547)"></path>
<path d="M0 0 C3.58 1.65 6.74 3.81 10 6 C11.25 6.83 12.5 7.66 13.75 8.49 C21.89 13.9 30 19.35 38.06 24.88 C51.73 34.23 65.53 43.38 79.32 52.55 C83.59 55.39 87.85 58.23 92.11 61.08 C95.13 63.09 98.15 65.1 101.18 67.11 C103.22 68.47 105.27 69.83 107.31 71.19 C108.34 71.87 109.38 72.56 110.44 73.26 C112.43 74.59 114.41 75.92 116.39 77.26 C117.92 78.28 119.48 79.27 121.08 80.18 C127.09 83.79 129.22 89.6 132 95.81 C132.72 97.37 132.72 97.37 133.46 98.95 C136.77 106.11 139.91 113.34 143.06 120.57 C146.42 128.25 149.82 135.92 153.21 143.59 C154.43 146.36 155.66 149.14 156.88 151.91 C160.73 160.61 164.58 169.31 168.44 178 C168.76 178.73 169.08 179.46 169.42 180.21 C171.1 184.01 172.81 187.79 174.56 191.56 C177.01 196.91 179.23 202.35 181.41 207.81 C182.78 211.18 184.2 214.46 185.85 217.69 C188.07 222.09 190.1 226.56 192.11 231.06 C192.49 231.92 192.88 232.78 193.28 233.67 C194.52 236.44 195.76 239.22 197 242 C197.41 242.93 197.83 243.86 198.26 244.81 C200.83 250.57 203.39 256.32 205.95 262.08 C207.26 265.03 208.58 267.98 209.89 270.93 C212.27 276.28 214.64 281.64 217 287 C217.3 287.69 217.61 288.38 217.92 289.09 C218.68 290.8 219.43 292.53 220.17 294.25 C220.56 295.14 220.95 296.03 221.35 296.95 C222 299 222 299 221 301 C216.69 295.28 212.38 289.56 208.19 283.75 C204.95 279.27 201.64 274.85 198.31 270.44 C193.34 263.83 188.47 257.15 183.65 250.43 C180.64 246.25 177.6 242.11 174.5 238 C170.82 233.13 167.25 228.2 163.69 223.25 C158.93 216.63 154.09 210.07 149.18 203.56 C145.05 198.09 141.01 192.56 137 187 C131.42 179.29 125.78 171.63 120.13 163.97 C117.08 159.82 114.02 155.67 111 151.5 C103.56 141.25 96.07 131.04 88.44 120.94 C84.19 115.3 80.07 109.58 75.94 103.85 C68.76 93.89 61.51 83.99 54.12 74.19 C49.21 67.66 44.41 61.06 39.64 54.43 C35.97 49.32 32.23 44.27 28.43 39.24 C23.48 32.66 18.62 26.01 13.75 19.37 C12.06 17.09 10.38 14.8 8.69 12.52 C7.69 11.16 6.69 9.8 5.69 8.44 C5.23 7.81 4.76 7.19 4.29 6.54 C1.11 2.23 1.11 2.23 0 0 Z " fill="#195074" transform="translate(93,548)"></path>
<path d="M0 0 C0.66 0 1.32 0 2 0 C2 42.57 2 85.14 2 129 C-33.56 137.89 -33.56 137.89 -49.29 141.77 C-51.93 142.44 -54.45 143.15 -57.02 144.04 C-60.4 145.13 -63.75 145.76 -67.23 146.43 C-72.21 147.45 -77.1 148.81 -82 150.12 C-84.04 150.67 -86.08 151.22 -88.12 151.76 C-89.01 152 -89.9 152.24 -90.82 152.48 C-93 153 -93 153 -95 153 C-94.31 146.91 -92.78 141.2 -91.12 135.31 C-90.58 133.34 -90.03 131.36 -89.48 129.39 C-89.22 128.45 -88.96 127.52 -88.7 126.55 C-87.63 122.65 -86.66 118.74 -85.7 114.81 C-84.89 111.55 -84.01 108.31 -83.12 105.06 C-81.72 99.85 -80.42 94.63 -79.19 89.37 C-78.56 86.68 -77.91 83.99 -77.25 81.3 C-76.43 77.89 -75.69 74.48 -75.03 71.04 C-72.72 60.05 -68.99 54.62 -59.78 48.25 C-56.84 46.19 -54.06 43.92 -51.25 41.69 C-50.08 40.78 -48.92 39.87 -47.75 38.96 C-42.77 35.06 -37.91 31.01 -33.04 26.98 C-28.62 23.33 -24.17 19.72 -19.69 16.15 C-15.92 13.14 -12.18 10.1 -8.44 7.06 C-7.72 6.48 -7.01 5.9 -6.27 5.3 C-5.27 4.49 -5.27 4.49 -4.25 3.66 C-3.34 2.93 -3.34 2.93 -2.42 2.18 C-1.04 1.07 -1.04 1.07 0 0 Z " fill="#194F75" transform="translate(324,338)"></path>
<path d="M0 0 C4.93 3.7 9.84 7.39 14.69 11.19 C15.29 11.66 15.88 12.13 16.5 12.61 C21.13 16.26 25.63 20.05 30.11 23.88 C33.92 27.12 37.8 30.24 41.75 33.31 C47.21 37.56 52.59 41.91 57.94 46.31 C58.64 46.89 59.33 47.46 60.05 48.05 C61.4 49.17 62.74 50.29 64.07 51.42 C65.95 53.01 65.95 53.01 67.92 54.26 C74.46 58.83 75.32 65.56 77 73 C77.29 74.18 77.58 75.36 77.88 76.58 C78.76 80.15 79.6 83.73 80.44 87.31 C82.47 95.86 84.57 104.33 87.15 112.73 C89.03 118.91 90.62 125.17 92.19 131.44 C92.44 132.43 92.69 133.43 92.95 134.45 C94.47 140.61 95.82 146.77 97 153 C91.9 152.38 87.12 151.27 82.19 149.81 C75.05 147.77 67.87 146.01 60.62 144.38 C47.87 141.49 35.19 138.36 22.5 135.19 C21 134.81 21 134.81 19.47 134.43 C16.62 133.72 13.76 133.01 10.91 132.29 C9.6 131.97 9.6 131.97 8.27 131.64 C2.23 130.12 2.23 130.12 0 129 C0 86.43 0 43.86 0 0 Z " fill="#2B83BF" transform="translate(331,338)"></path>
<path d="M0 0 C0 58.41 0 116.82 0 177 C-2.82 173.48 -5.09 170.37 -7.38 166.56 C-11.02 160.55 -14.78 154.61 -18.56 148.69 C-23.65 140.72 -28.69 132.71 -33.69 124.69 C-38.32 117.25 -43.01 109.85 -47.8 102.51 C-51.78 96.39 -55.64 90.2 -59.5 84 C-64.27 76.35 -69.08 68.73 -74 61.17 C-78.97 53.54 -83.81 45.82 -88.67 38.11 C-91.43 33.73 -94.21 29.37 -97 25 C-92.72 22.15 -88.44 21.05 -83.43 20.11 C-78.1 19.06 -72.91 17.66 -67.69 16.19 C-56.04 12.95 -44.31 10.15 -32.53 7.43 C-30.95 7.06 -29.37 6.7 -27.78 6.33 C-26.36 6 -24.93 5.67 -23.5 5.34 C-19.58 4.43 -15.81 3.28 -12 2 C-10.26 1.59 -8.51 1.21 -6.75 0.88 C-5.9 0.71 -5.05 0.54 -4.17 0.37 C-2 0 -2 0 0 0 Z " fill="#10355B" transform="translate(326,472)"></path>
<path d="M0 0 C17.25 3.45 17.25 3.45 25 5.42 C26.31 5.75 26.31 5.75 27.64 6.08 C30.43 6.78 33.22 7.48 36 8.19 C37.94 8.68 39.89 9.17 41.83 9.65 C47.55 11.1 53.28 12.55 59 14 C59.84 14.21 60.68 14.43 61.54 14.64 C66.65 15.94 71.76 17.25 76.88 18.56 C78.13 18.88 79.39 19.21 80.68 19.54 C81.84 19.84 82.99 20.13 84.18 20.44 C85.17 20.7 86.15 20.95 87.17 21.21 C90.15 22.04 93.07 23 96 24 C94.44 28.41 92.13 32.2 89.62 36.12 C89.18 36.82 88.74 37.52 88.29 38.24 C87.34 39.73 86.4 41.23 85.45 42.72 C84.04 44.94 82.63 47.17 81.23 49.39 C74.14 60.68 66.95 71.9 59.76 83.12 C56.69 87.92 53.63 92.72 50.57 97.53 C48.99 100.02 47.4 102.51 45.81 105 C41.05 112.49 36.32 119.99 31.58 127.5 C29.05 131.5 26.53 135.5 24 139.5 C23.51 140.28 23.02 141.05 22.52 141.85 C19.93 145.95 17.34 150.04 14.75 154.14 C14.22 154.98 13.69 155.83 13.13 156.7 C12.12 158.3 11.11 159.91 10.1 161.51 C9.63 162.24 9.17 162.97 8.69 163.73 C8.25 164.43 7.8 165.14 7.34 165.86 C6.41 167.35 5.49 168.83 4.58 170.33 C4.13 171.06 3.68 171.79 3.21 172.55 C2.81 173.21 2.41 173.88 2 174.56 C1.67 175.04 1.34 175.51 1 176 C0.67 176 0.34 176 0 176 C0 117.92 0 59.84 0 0 Z " fill="#1E6290" transform="translate(331,472)"></path>
<path d="M0 0 C0.99 0.5 0.99 0.5 2 1 C1.68 1.7 1.37 2.4 1.04 3.12 C-5.65 18 -12.29 32.89 -18.88 47.81 C-19.33 48.85 -19.33 48.85 -19.8 49.91 C-20.7 51.95 -21.6 53.98 -22.49 56.02 C-22.78 56.68 -23.07 57.34 -23.37 58.02 C-24.84 61.36 -26.3 64.7 -27.75 68.04 C-30.82 75.09 -33.96 82.09 -37.23 89.05 C-40.92 96.92 -44.4 104.89 -47.9 112.85 C-50 117.62 -52.11 122.4 -54.21 127.17 C-54.63 128.11 -55.05 129.05 -55.47 130.02 C-58.85 137.67 -62.26 145.31 -65.69 152.94 C-72.52 168.14 -79.29 183.37 -86.05 198.61 C-89.36 206.07 -92.68 213.54 -96 221 C-96.33 221 -96.66 221 -97 221 C-97.26 200.78 -97.45 180.56 -97.57 160.34 C-97.63 150.95 -97.7 141.57 -97.83 132.18 C-97.94 123.99 -98.01 115.81 -98.03 107.63 C-98.05 103.29 -98.08 98.96 -98.16 94.63 C-98.24 90.55 -98.26 86.47 -98.24 82.39 C-98.25 80.9 -98.27 79.4 -98.31 77.91 C-98.43 73.43 -98.38 69.32 -97 65 C-93.72 61.71 -90.19 59.93 -86 58 C-84.49 57.04 -82.99 56.06 -81.52 55.04 C-80.45 54.33 -80.45 54.33 -79.37 53.61 C-78.67 53.14 -77.97 52.67 -77.25 52.19 C-75.84 51.24 -74.43 50.3 -73.02 49.36 C-72.25 48.84 -71.48 48.33 -70.69 47.8 C-62.9 42.59 -55.11 37.4 -47.31 32.22 C-44.8 30.54 -42.28 28.87 -39.77 27.2 C-38.5 26.35 -37.24 25.51 -35.97 24.67 C-23.86 16.62 -11.91 8.36 0 0 Z " fill="#2B82BE" transform="translate(428,638)"></path>
<path d="M0 0 C3.39 1.58 6.4 3.53 9.5 5.62 C10.44 6.26 11.38 6.89 12.34 7.54 C13.17 8.1 13.17 8.1 14.01 8.66 C20.54 13.05 27.09 17.4 33.64 21.75 C47.72 31.12 61.8 40.49 75.75 50.05 C81.7 54.12 87.68 58.15 93.7 62.12 C97.9 64.9 97.9 64.9 99 66 C99.1 68 99.12 70 99.12 72 C99.12 73.96 99.12 73.96 99.12 75.96 C99.12 77.42 99.12 78.88 99.11 80.34 C99.11 81.87 99.11 83.4 99.11 84.92 C99.11 89.08 99.11 93.24 99.1 97.4 C99.1 101.74 99.09 106.08 99.09 110.43 C99.09 118.65 99.08 126.88 99.07 135.11 C99.06 144.47 99.06 153.83 99.05 163.2 C99.04 182.47 99.02 201.73 99 221 C96.09 219.54 96.02 217.73 94.94 214.69 C92.7 208.68 90.21 202.84 87.56 197 C87.2 196.21 86.84 195.41 86.47 194.6 C84.37 189.97 82.24 185.35 80.11 180.73 C76.96 173.92 73.84 167.09 70.75 160.25 C70.46 159.6 70.16 158.96 69.86 158.29 C63.75 144.75 57.78 131.15 51.82 117.55 C46.87 106.25 41.89 94.96 36.88 83.69 C36.55 82.96 36.23 82.23 35.89 81.47 C34.26 77.8 32.62 74.13 30.99 70.46 C28.94 65.87 26.91 61.29 24.87 56.7 C24.35 55.55 24.35 55.55 23.83 54.37 C22.47 51.31 21.11 48.24 19.75 45.18 C16.58 38.06 13.42 30.94 10.25 23.83 C9.39 21.9 8.53 19.97 7.67 18.04 C6.63 15.7 5.58 13.37 4.54 11.03 C4.08 10.01 3.63 8.99 3.16 7.93 C2.76 7.05 2.37 6.16 1.96 5.25 C1 3 1 3 0 0 Z " fill="#195075" transform="translate(227,638)"></path>
<path d="M0 0 C0.33 0 0.66 0 1 0 C1.4 28.2 1.7 56.4 1.88 84.6 C1.97 97.69 2.09 110.79 2.28 123.88 C2.45 135.3 2.56 146.71 2.6 158.13 C2.62 164.17 2.67 170.21 2.8 176.25 C2.91 181.95 2.95 187.64 2.92 193.33 C2.93 195.42 2.96 197.5 3.03 199.58 C3.48 214.87 3.48 214.87 -0.65 220.08 C-4.67 223.92 -9.14 226.84 -13.9 229.67 C-17.11 231.7 -19.84 234.11 -22.69 236.62 C-27.06 240.39 -31.51 244.02 -36.06 247.56 C-41.52 251.81 -46.86 256.18 -52.16 260.63 C-54.97 262.98 -57.79 265.31 -60.62 267.62 C-61.42 268.28 -62.22 268.93 -63.04 269.6 C-65 271 -65 271 -67 271 C-67.33 271.99 -67.66 272.98 -68 274 C-68.66 273.67 -69.32 273.34 -70 273 C-69.75 272.31 -69.49 271.62 -69.23 270.9 C-66.77 263.92 -65.14 257.03 -63.77 249.77 C-62.81 245.06 -61.46 240.51 -60.1 235.91 C-58.75 231.25 -57.67 226.53 -56.56 221.81 C-54.22 211.82 -51.66 201.91 -49 192 C-48.29 189.35 -47.58 186.71 -46.88 184.06 C-46.58 182.98 -46.29 181.9 -45.99 180.79 C-45.18 177.69 -44.4 174.6 -43.62 171.5 C-41.83 164.3 -39.98 157.12 -38.12 149.94 C-37.86 148.92 -37.86 148.92 -37.6 147.88 C-35.3 139 -33 130.11 -30.64 121.24 C-28.2 112.07 -25.96 102.85 -23.73 93.63 C-19.55 76.36 -15.35 59.11 -10.55 42 C-9.27 37.36 -8.14 32.68 -7 28 C-6.33 25.33 -5.67 22.67 -5 20 C-4.66 18.65 -4.32 17.29 -3.98 15.94 C-2.66 10.62 -1.33 5.31 0 0 Z " fill="#195075" transform="translate(325,114)"></path>
<path d="M0 0 C2.29 2.29 2.48 3.34 3.15 6.45 C3.45 7.8 3.45 7.8 3.75 9.18 C4.06 10.64 4.06 10.64 4.38 12.12 C4.82 14.15 5.27 16.18 5.72 18.21 C5.94 19.21 6.16 20.2 6.38 21.23 C9 32.97 12.22 44.55 15.36 56.16 C18.04 66.07 20.55 76.03 23 86 C26.4 99.82 29.94 113.59 33.65 127.33 C35.83 135.41 37.85 143.49 39.57 151.68 C40.73 157.05 42.19 162.3 43.75 167.56 C46.89 178.2 49.48 188.96 52.02 199.75 C53.86 207.54 55.87 215.25 58.04 222.96 C60.41 231.38 62.57 239.85 64.7 248.34 C65.39 251.06 66.08 253.77 66.78 256.48 C67.21 258.22 67.65 259.95 68.09 261.69 C68.29 262.5 68.5 263.3 68.72 264.14 C70.11 269.77 70.11 269.77 69 272 C68.39 271.5 67.78 271 67.16 270.49 C59.48 264.2 51.78 257.94 44.08 251.69 C41.38 249.5 38.68 247.31 35.99 245.11 C34.66 244.04 33.34 242.96 32.01 241.89 C28.61 239.12 25.2 236.35 21.79 233.57 C21.09 233.01 20.39 232.44 19.68 231.86 C18.37 230.79 17.06 229.73 15.75 228.66 C14.84 227.92 14.84 227.92 13.91 227.17 C13.34 226.67 12.76 226.18 12.17 225.67 C10.03 223.92 10.03 223.92 7.47 222.67 C3.77 220.47 0.68 218.35 -0.57 214.04 C-1.51 207.82 -1.25 201.53 -1.14 195.26 C-1.13 193.13 -1.13 191.01 -1.14 188.88 C-1.14 183.11 -1.08 177.34 -1.01 171.57 C-0.95 165.54 -0.95 159.51 -0.93 153.47 C-0.9 142.06 -0.82 130.64 -0.72 119.22 C-0.61 106.22 -0.55 93.22 -0.5 80.22 C-0.4 53.48 -0.22 26.74 0 0 Z " fill="#2C83BE" transform="translate(331,116)"></path>
<path d="" fill="#C5D9E5" transform="translate(237,752)"></path>
<path d="M0 0 C5.6 3.5 10.56 7.29 15.43 11.74 C18.45 14.39 21.58 16.85 24.75 19.31 C29.43 22.94 34.01 26.65 38.5 30.5 C43.49 34.77 48.59 38.85 53.78 42.88 C57.71 45.95 61.53 49.12 65.31 52.38 C70.22 56.59 75.28 60.54 80.44 64.44 C86.57 69.06 92.47 73.87 98.26 78.9 C101.91 82.08 105.64 85.11 109.49 88.05 C112.89 90.69 116.22 93.41 119.56 96.12 C120.24 96.68 120.92 97.23 121.62 97.8 C125.2 100.72 128.77 103.63 132.34 106.55 C133.05 107.13 133.76 107.71 134.49 108.3 C135.83 109.4 137.17 110.5 138.51 111.6 C142.56 114.91 146.71 118 151 121 C147.06 122.49 144.02 121.51 140.02 120.52 C139.35 120.36 138.67 120.19 137.97 120.02 C135.77 119.48 133.57 118.93 131.38 118.38 C129.86 118 128.35 117.63 126.84 117.25 C117.81 115.01 108.82 112.65 99.87 110.09 C91.74 107.77 83.5 105.61 75.19 104.06 C69.71 103.02 64.35 101.55 58.97 100.1 C54.18 98.83 49.39 97.59 44.57 96.41 C43.49 96.14 42.41 95.88 41.3 95.6 C39.17 95.08 37.05 94.57 34.92 94.06 C33.46 93.7 33.46 93.7 31.97 93.33 C31.11 93.12 30.25 92.91 29.36 92.7 C24.84 91.36 24.84 91.36 23 90 C21.81 87 21.81 87 20.85 83.14 C20.58 82.1 20.58 82.1 20.31 81.04 C19.73 78.78 19.18 76.52 18.62 74.25 C18.23 72.69 17.84 71.14 17.44 69.58 C16.65 66.49 15.87 63.39 15.09 60.29 C13.69 54.73 12.16 49.21 10.62 43.69 C8.83 37.19 7.17 30.68 5.72 24.09 C4.57 19.16 3.21 14.29 1.87 9.41 C1.07 6.28 0.48 3.19 0 0 Z " fill="#2C83BD" transform="translate(410,402)"></path>
<path d="M0 0 C1.63 3.27 0.01 6.47 -0.91 9.84 C-1.23 11.03 -1.23 11.03 -1.56 12.25 C-2.24 14.81 -2.93 17.38 -3.62 19.94 C-4.07 21.6 -4.51 23.26 -4.96 24.92 C-5.85 28.26 -6.74 31.59 -7.64 34.93 C-9.02 40.07 -10.39 45.23 -11.74 50.38 C-12.05 51.55 -12.05 51.55 -12.36 52.74 C-13.43 56.8 -14.48 60.87 -15.5 64.94 C-15.73 65.84 -15.96 66.74 -16.19 67.68 C-16.87 70.48 -17.52 73.29 -18.15 76.11 C-18.58 77.95 -19.01 79.79 -19.44 81.62 C-19.63 82.52 -19.82 83.41 -20.02 84.32 C-20.22 85.16 -20.42 85.99 -20.62 86.85 C-20.79 87.6 -20.96 88.35 -21.13 89.13 C-22.3 91.65 -23.43 92.05 -26 93 C-27.46 93.41 -28.94 93.76 -30.43 94.08 C-31.3 94.27 -32.16 94.45 -33.05 94.65 C-33.98 94.85 -34.92 95.05 -35.88 95.25 C-43.57 96.94 -51.17 98.81 -58.75 100.94 C-67.88 103.5 -77.07 105.66 -86.32 107.75 C-94.25 109.55 -102.09 111.61 -109.92 113.81 C-117.48 115.91 -125.1 117.69 -132.77 119.35 C-136.41 120.15 -139.86 120.95 -143.38 122.2 C-146.12 123.04 -147.36 123.02 -150 122 C-141.72 115.21 -133.42 108.46 -125.11 101.71 C-122.99 99.99 -120.88 98.28 -118.77 96.56 C-112.31 91.3 -105.84 86.06 -99.33 80.87 C-95.91 78.12 -92.52 75.34 -89.12 72.55 C-81.11 66 -73.09 59.45 -65 53 C-58.67 47.95 -52.4 42.83 -46.12 37.72 C-44.01 36.01 -41.91 34.3 -39.8 32.59 C-38.78 31.76 -38.78 31.76 -37.73 30.91 C-36.37 29.81 -35.01 28.7 -33.65 27.6 C-29.88 24.54 -26.13 21.46 -22.38 18.38 C-17.54 14.41 -12.63 10.55 -7.68 6.72 C-4.97 4.61 -2.34 2.52 0 0 Z " fill="#194F74" transform="translate(246,401)"></path>
<path d="M0 0 C1.72 0.92 3.43 1.83 5.15 2.74 C6 3.19 6.84 3.64 7.72 4.11 C11 5.83 14.3 7.49 17.62 9.12 C25.11 12.83 32.52 16.66 39.94 20.5 C41.64 21.38 41.64 21.38 43.37 22.28 C45.02 23.13 45.02 23.13 46.71 24.01 C47.78 24.56 48.86 25.12 49.97 25.69 C52.06 26.81 54.14 27.97 56.19 29.17 C57.14 29.73 58.09 30.29 59.07 30.87 C59.91 31.37 60.74 31.88 61.6 32.4 C65.62 33.95 68.8 32.93 72.67 31.32 C73.98 30.63 73.98 30.63 75.31 29.94 C76.87 29.13 76.87 29.13 78.46 28.31 C79.69 27.67 80.91 27.02 82.12 26.38 C83.61 25.59 85.09 24.81 86.57 24.04 C89 22.75 91.43 21.47 93.86 20.19 C99.46 17.23 105.09 14.37 110.76 11.57 C117.95 8 125.05 4.25 132.15 0.5 C133.99 -0.47 135.83 -1.43 137.68 -2.37 C139.16 -3.13 140.62 -3.92 142.06 -4.76 C144.5 -6.07 146.44 -6.75 149.19 -6.24 C151.48 -5.46 153.62 -4.53 155.81 -3.5 C156.93 -3.02 156.93 -3.02 158.07 -2.52 C161.74 -0.9 165.04 0.75 168.12 3.38 C159.52 9.42 150.79 15.28 142.03 21.09 C134.91 25.84 127.8 30.61 120.71 35.4 C119.78 36.03 118.86 36.65 117.9 37.3 C114.15 39.84 110.39 42.37 106.64 44.91 C101.37 48.49 96.08 52.04 90.79 55.59 C88.02 57.44 85.27 59.32 82.52 61.2 C80.72 62.41 78.91 63.62 77.11 64.83 C75.86 65.69 75.86 65.69 74.59 66.57 C73.43 67.34 73.43 67.34 72.24 68.13 C71.56 68.59 70.89 69.05 70.19 69.52 C67.43 70.66 65.95 70.26 63.12 69.38 C61.26 68.41 61.26 68.41 59.49 67.22 C58.82 66.77 58.15 66.32 57.45 65.86 C56.74 65.37 56.03 64.88 55.29 64.38 C54.53 63.87 53.78 63.36 53 62.84 C50.58 61.21 48.16 59.58 45.75 57.94 C44.17 56.87 42.58 55.8 41 54.74 C37.87 52.63 34.74 50.52 31.61 48.4 C25.14 44.03 18.63 39.7 12.12 35.38 C11.12 34.7 10.11 34.03 9.06 33.34 C7.17 32.08 5.28 30.82 3.39 29.57 C-0.65 26.88 -4.69 24.18 -8.72 21.48 C-11.91 19.35 -15.11 17.23 -18.31 15.12 C-20.33 13.77 -22.35 12.41 -24.38 11.06 C-25.33 10.43 -26.29 9.81 -27.27 9.16 C-28.14 8.57 -29.01 7.99 -29.91 7.39 C-30.68 6.88 -31.44 6.36 -32.24 5.84 C-32.78 5.36 -33.32 4.87 -33.88 4.38 C-33.88 3.38 -33.88 2.39 -33.88 1.38 C-31.65 0.42 -29.42 -0.54 -27.19 -1.5 C-26.56 -1.77 -25.94 -2.04 -25.29 -2.32 C-23.49 -3.09 -21.68 -3.86 -19.88 -4.62 C-19.02 -5.06 -18.17 -5.5 -17.29 -5.95 C-11.41 -7.6 -5.07 -2.74 0 0 Z " fill="#21628E" transform="translate(261.875,628.625)"></path>
<path d="" fill="#E5EEF4" transform="translate(417,755)"></path>
<path d="" fill="#658EAC" transform="translate(366,825)"></path>
<path d="M0 0 C7.74 0.46 14.81 2.12 22.25 4.25 C30.61 6.57 38.96 8.76 47.44 10.62 C57.37 12.82 67.18 15.35 77 18 C80.44 18.92 83.87 19.84 87.31 20.75 C88.1 20.96 88.88 21.17 89.68 21.39 C93.77 22.48 97.81 23.39 102 24 C101.34 24.33 100.68 24.66 100 25 C100 25.66 100 26.32 100 27 C101.49 27.5 101.49 27.5 103 28 C102.36 28.21 101.72 28.41 101.06 28.62 C98.65 29.9 98.65 29.9 98.25 33.12 C98.17 34.07 98.09 35.02 98 36 C97.34 36 96.68 36 96 36 C96 37.32 96 38.64 96 40 C48.98 40.5 48.98 40.5 1 41 C0.67 42.65 0.34 44.3 0 46 C-5.28 46 -10.56 46 -16 46 C-16 45.34 -16 44.68 -16 44 C-16.66 43.67 -17.32 43.34 -18 43 C-17.67 40.36 -17.34 37.72 -17 35 C-17.66 34.67 -18.32 34.34 -19 34 C-18.67 33.34 -18.34 32.68 -18 32 C-18.66 31.67 -19.32 31.34 -20 31 C-18.97 29.4 -18.97 29.4 -17.91 27.77 C-11.92 18.53 -5.95 9.27 0 0 Z " fill="#1C5B88" transform="translate(432,498)"></path>
<path d="M0 0 C0.66 0 1.32 0 2 0 C2 2.64 2 5.28 2 8 C2.99 8 3.98 8 5 8 C5 9.32 5 10.64 5 12 C20.84 12 36.68 12 53 12 C53.33 10.68 53.66 9.36 54 8 C57.47 7.5 57.47 7.5 61 7 C61 5.35 61 3.7 61 2 C63 3 63 3 65 5 C64.67 5.66 64.34 6.32 64 7 C64.66 7 65.32 7 66 7 C64.31 11.89 61.65 16.07 58.94 20.44 C58.2 21.64 58.2 21.64 57.44 22.87 C53.86 28.67 50.2 34.41 46.5 40.13 C43.37 44.97 40.28 49.83 37.19 54.69 C36.59 55.63 35.99 56.57 35.37 57.55 C30.06 65.9 24.78 74.26 19.5 82.62 C17.92 85.13 16.34 87.63 14.76 90.12 C13.96 91.4 13.96 91.4 13.14 92.69 C12.12 94.3 11.11 95.9 10.1 97.51 C9.63 98.24 9.17 98.98 8.69 99.73 C8.25 100.43 7.8 101.14 7.34 101.86 C6.41 103.35 5.49 104.83 4.58 106.33 C4.13 107.06 3.68 107.79 3.21 108.55 C2.81 109.21 2.41 109.88 2 110.56 C1.67 111.04 1.34 111.51 1 112 C0.67 112 0.34 112 0 112 C0 75.04 0 38.08 0 0 Z " fill="#164872" transform="translate(331,536)"></path>
<path d="M0 0 C0.5 0.99 0.5 0.99 1 2 C2.32 2 3.64 2 5 2 C5 3.32 5 4.64 5 6 C15.56 6 26.12 6 37 6 C37 7.32 37 8.64 37 10 C42.28 10 47.56 10 53 10 C53.15 7.93 53.15 7.93 52 6 C52.33 5.34 52.66 4.68 53 4 C54.32 4 55.64 4 57 4 C57 3.34 57 2.68 57 2 C63.51 1.63 63.51 1.63 65.81 3.38 C66.4 4.18 66.4 4.18 67 5 C67.99 5.99 67.99 5.99 69 7 C69 6.01 69 5.02 69 4 C69.66 4 70.32 4 71 4 C71.33 5.32 71.66 6.64 72 8 C40.34 25.96 40.34 25.96 24.33 33.85 C10.21 40.83 -3.79 48.08 -17.46 55.9 C-22.47 58.75 -27.58 61.35 -32.76 63.89 C-41.26 68.09 -49.62 72.55 -58 77 C-58 72.64 -55.63 69.77 -53.38 66.19 C-52.88 65.4 -52.39 64.61 -51.89 63.79 C-46.27 54.77 -40.55 45.82 -34.83 36.87 C-32.96 33.94 -31.1 31 -29.24 28.06 C-28.63 27.09 -28.01 26.12 -27.37 25.11 C-26.21 23.27 -25.04 21.43 -23.88 19.58 C-22.27 17.04 -20.64 14.52 -19 12 C-18.13 10.6 -18.13 10.6 -17.24 9.18 C-16.65 8.27 -16.06 7.36 -15.46 6.43 C-14.93 5.6 -14.41 4.78 -13.87 3.93 C-11.41 1.39 -9.59 1.24 -6.12 0.94 C-4.42 0.95 -2.71 0.97 -1 1 C-0.67 0.67 -0.34 0.34 0 0 Z " fill="#10335A" transform="translate(395,574)"></path>
<path d="M0 0 C0.99 0.5 0.99 0.5 2 1 C-3.99 4.99 -9.97 8.98 -15.96 12.96 C-25.43 19.26 -34.88 25.55 -44.2 32.06 C-49.08 35.44 -54.05 38.72 -59 42 C-60.88 43.25 -62.75 44.5 -64.62 45.75 C-66.16 46.78 -67.7 47.8 -69.24 48.83 C-70.11 49.41 -70.11 49.41 -71 50 C-73.11 51.41 -75.23 52.82 -77.34 54.23 C-78.87 55.25 -80.4 56.27 -81.93 57.29 C-85.85 59.9 -89.77 62.51 -93.7 65.12 C-94.85 65.88 -94.85 65.88 -96.02 66.66 C-97.54 67.67 -99.06 68.68 -100.58 69.68 C-104.03 71.96 -107.42 74.28 -110.7 76.79 C-119.76 83.66 -119.76 83.66 -124.44 83.44 C-130.86 81.9 -137.03 78.78 -143 76 C-143 75.34 -143 74.68 -143 74 C-142.11 73.56 -141.22 73.12 -140.31 72.67 C-125.42 65.29 -110.7 57.61 -96.06 49.75 C-91.33 47.21 -86.56 44.76 -81.75 42.38 C-74.27 38.67 -66.85 34.84 -59.44 31 C-58.85 30.69 -58.26 30.39 -57.65 30.07 C-51.01 26.63 -44.39 23.17 -37.81 19.62 C-32.26 16.64 -26.66 13.8 -21.01 11.02 C-17.54 9.3 -14.12 7.54 -10.73 5.68 C-10.04 5.31 -9.35 4.93 -8.64 4.54 C-7.32 3.82 -6.01 3.09 -4.7 2.35 C-3.16 1.51 -1.58 0.75 0 0 Z " fill="#173F62" transform="translate(558,544)"></path>
<path d="M0 0 C4.19 1.26 7.66 2.84 11.38 5.12 C18.07 9.12 24.97 12.57 31.97 16 C48.79 24.26 65.39 32.95 81.94 41.75 C87.01 44.45 92.1 47.08 97.25 49.62 C105.11 53.52 112.9 57.54 120.69 61.56 C121.3 61.88 121.91 62.19 122.54 62.52 C131.07 66.93 139.56 71.42 148 76 C144.21 78.52 140.28 80.06 136.06 81.75 C135.25 82.09 134.44 82.43 133.6 82.79 C132.82 83.1 132.03 83.41 131.22 83.73 C130.51 84.03 129.79 84.32 129.06 84.62 C126.33 85.13 125.34 84.45 123 83 C122.33 82.6 121.65 82.2 120.96 81.78 C110.68 75.26 100.64 68.38 90.56 61.56 C86.77 59 82.98 56.44 79.19 53.88 C77.83 52.96 77.83 52.96 76.45 52.03 C69.98 47.66 63.5 43.31 57 39 C47.73 32.85 38.48 26.67 29.31 20.38 C23.44 16.34 17.55 12.33 11.62 8.38 C11.02 7.97 10.42 7.57 9.81 7.16 C7.27 5.47 4.72 3.83 2.09 2.29 C1.4 1.86 0.71 1.44 0 1 C0 0.67 0 0.34 0 0 Z " fill="#163E61" transform="translate(95,543)"></path>
<path d="M0 0 C0.33 0 0.66 0 1 0 C1 6.27 1 12.54 1 19 C1.66 19 2.32 19 3 19 C3.84 22.38 4.11 24.67 3 28 C3.99 27.34 4.98 26.68 6 26 C9.19 25.77 9.19 25.77 13.07 25.8 C14.1 25.81 14.1 25.81 15.15 25.81 C17.33 25.82 19.51 25.85 21.69 25.88 C23.17 25.89 24.65 25.89 26.13 25.9 C29.75 25.92 33.38 25.96 37 26 C37 25.34 37 24.68 37 24 C38.65 23.67 40.3 23.34 42 23 C40.44 27.41 38.13 31.2 35.62 35.12 C35.19 35.82 34.75 36.51 34.3 37.23 C33.35 38.72 32.41 40.21 31.46 41.69 C30 43.99 28.55 46.3 27.09 48.61 C24.59 52.58 22.08 56.56 19.56 60.53 C16.9 64.75 14.23 68.97 11.56 73.19 C11.08 73.95 10.59 74.72 10.1 75.51 C9.63 76.24 9.17 76.97 8.69 77.73 C8.25 78.43 7.8 79.14 7.34 79.86 C6.41 81.35 5.49 82.83 4.58 84.33 C4.13 85.06 3.68 85.79 3.21 86.55 C2.81 87.21 2.41 87.88 2 88.56 C1.67 89.04 1.34 89.51 1 90 C0.67 90 0.34 90 0 90 C0 60.3 0 30.6 0 0 Z " fill="#0F3258" transform="translate(331,558)"></path>

<path d="" fill="#CFE4F0" transform="translate(215,603)"></path>


<path d="" fill="#A4BCCC" transform="translate(247,765)"></path>





<path d="M0 0 C1.16 3.48 0.78 4.67 -0.25 8.12 C-0.5 9.01 -0.76 9.9 -1.02 10.82 C-1.34 11.54 -1.67 12.26 -2 13 C-2.99 13.33 -3.98 13.66 -5 14 C-5.75 12.38 -5.75 12.38 -6 10 C-4.19 7 -4.19 7 -2 4 C-1.31 2.68 -0.62 1.35 0 0 Z " fill="#2D5E7F" transform="translate(321,108)"></path>
<path d="M0 0 C4.54 1.35 8.32 3.19 12.38 5.62 C13.43 6.26 14.49 6.89 15.59 7.54 C16.38 8.02 17.18 8.5 18 9 C16.22 9.61 16.22 9.61 14 10 C11.43 8.63 9.14 7.26 6.75 5.62 C6.1 5.2 5.45 4.77 4.78 4.34 C3.16 3.26 1.58 2.13 0 1 C0 0.67 0 0.34 0 0 Z " fill="#304055" transform="translate(95,543)"></path>
<path d="" fill="#87B6D2" transform="translate(306,473)"></path>
<path d="M0 0 C0.66 0.33 1.32 0.66 2 1 C2 3.31 2 5.62 2 8 C2.66 8.33 3.32 8.66 4 9 C2.02 9.33 0.04 9.66 -2 10 C-1.54 6.53 -1.11 3.33 0 0 Z " fill="#2A5B7D" transform="translate(231,481)"></path>
<path d="M0 0 C2.47 0.5 2.47 0.5 5 1 C4.34 3.64 3.68 6.28 3 9 C2.01 8.34 1.02 7.68 0 7 C-0.19 3.38 -0.19 3.38 0 0 Z " fill="#AED8F3" transform="translate(234,450)"></path>
<path d="" fill="#90BEDB" transform="translate(318,469)"></path>
<path d="M0 0 C0.33 0 0.66 0 1 0 C1 1.65 1 3.3 1 5 C1.99 5 2.98 5 4 5 C3.67 7.31 3.34 9.62 3 12 C1 10 1 10 -1 7 C-0.62 3.31 -0.62 3.31 0 0 Z " fill="#90C0DD" transform="translate(240,426)"></path>


<path d="" fill="#91C3E0" transform="translate(559,524)"></path>
<path d="M0 0 C0.99 0.33 1.98 0.66 3 1 C3.12 6.75 3.12 6.75 2 9 C1.34 9 0.68 9 0 9 C-1.12 3.38 -1.12 3.38 0 0 Z " fill="#ABD8F4" transform="translate(262,345)"></path>
<path d="M0 0 C2.47 0.5 2.47 0.5 5 1 C5.33 1.99 5.66 2.98 6 4 C4.35 4 2.7 4 1 4 C0.67 2.68 0.34 1.36 0 0 Z " fill="#F1F9FB" transform="translate(173,580)"></path>
<path d="" fill="#AED8F5" transform="translate(297,474)"></path>


</svg>